<svg width="22" height="23" viewBox="0 0 22 23" fill="none" xmlns="http://www.w3.org/2000/svg">
<g id="dashboard-circle">
<path id="name" d="M16.2708 10.1257C18.4224 10.1257 20.1667 8.38143 20.1667 6.22982C20.1667 4.07821 18.4224 2.33398 16.2708 2.33398C14.1192 2.33398 12.375 4.07821 12.375 6.22982C12.375 8.38143 14.1192 10.1257 16.2708 10.1257Z" stroke="#101010" stroke-width="1.5" stroke-linecap="round" stroke-linejoin="round"/>
<path id="name_2" d="M5.72982 10.1257C7.88143 10.1257 9.62565 8.38143 9.62565 6.22982C9.62565 4.07821 7.88143 2.33398 5.72982 2.33398C3.57821 2.33398 1.83398 4.07821 1.83398 6.22982C1.83398 8.38143 3.57821 10.1257 5.72982 10.1257Z" stroke="#101010" stroke-width="1.5" stroke-linecap="round" stroke-linejoin="round"/>
<path id="name_3" d="M16.2708 20.6667C18.4224 20.6667 20.1667 18.9224 20.1667 16.7708C20.1667 14.6192 18.4224 12.875 16.2708 12.875C14.1192 12.875 12.375 14.6192 12.375 16.7708C12.375 18.9224 14.1192 20.6667 16.2708 20.6667Z" stroke="#101010" stroke-width="1.5" stroke-linecap="round" stroke-linejoin="round"/>
<path id="name_4" d="M5.72982 20.6667C7.88143 20.6667 9.62565 18.9224 9.62565 16.7708C9.62565 14.6192 7.88143 12.875 5.72982 12.875C3.57821 12.875 1.83398 14.6192 1.83398 16.7708C1.83398 18.9224 3.57821 20.6667 5.72982 20.6667Z" stroke="#101010" stroke-width="1.5" stroke-linecap="round" stroke-linejoin="round"/>
</g>
</svg>
