<svg width="23" height="22" viewBox="0 0 23 22" fill="none" xmlns="http://www.w3.org/2000/svg">
<g id="home-01">
<path id="name" d="M14.25 15.584C13.5171 16.1545 12.5544 16.5007 11.5 16.5007C10.4457 16.5007 9.48289 16.1545 8.75 15.584" stroke="#E65527" stroke-width="1.5"/>
<path id="name_2" d="M2.65609 12.113C2.33249 10.0072 2.17069 8.95431 2.56881 8.02092C2.96692 7.08751 3.85018 6.44888 5.6167 5.17162L6.93656 4.21732C9.13408 2.62843 10.2328 1.83398 11.5007 1.83398C12.7685 1.83398 13.8672 2.62843 16.0647 4.21732L17.3846 5.17162C19.1512 6.44888 20.0344 7.08751 20.4325 8.02092C20.8306 8.95431 20.6688 10.0072 20.3452 12.113L20.0693 13.9087C19.6105 16.8938 19.3811 18.3864 18.3106 19.2769C17.24 20.1673 15.6749 20.1673 12.5446 20.1673H10.4568C7.32645 20.1673 5.76132 20.1673 4.69073 19.2769C3.62015 18.3864 3.39078 16.8938 2.93205 13.9087L2.65609 12.113Z" stroke="#E65527" stroke-width="1.5"/>
</g>
</svg>
