<svg width="22" height="22" viewBox="0 0 22 22" fill="none" xmlns="http://www.w3.org/2000/svg">
<g id="nintendo-switch">
<path id="name" d="M9.62498 3.95831V14.375C9.62498 15.0744 9.62498 15.4241 9.50068 15.6962C9.36336 15.9971 9.12205 16.2384 8.82117 16.3757C8.54909 16.5 8.19939 16.5 7.49998 16.5C5.63489 16.5 4.70234 16.5 3.97679 16.1686C3.17445 15.8022 2.53108 15.1588 2.16466 14.3565C1.83331 13.6309 1.83331 12.6984 1.83331 10.8333V7.49998C1.83331 5.63489 1.83331 4.70234 2.16466 3.97679C2.53108 3.17445 3.17445 2.53108 3.97679 2.16466C4.70234 1.83331 5.63489 1.83331 7.49998 1.83331C8.19939 1.83331 8.54909 1.83331 8.82117 1.95757C9.12205 2.09498 9.36336 2.33624 9.50068 2.63712C9.62498 2.9092 9.62498 3.2589 9.62498 3.95831Z" stroke="#101010" stroke-width="1.5" stroke-linecap="round" stroke-linejoin="round"/>
<path id="name_2" d="M5.72936 12.8333H5.72113" stroke="#101010" stroke-width="2" stroke-linecap="round" stroke-linejoin="round"/>
<path id="name_3" d="M16.271 9.16669H16.2628" stroke="#101010" stroke-width="2" stroke-linecap="round" stroke-linejoin="round"/>
<path id="name_4" d="M5.72919 5.04169V7.79169M4.35419 6.41669H7.10419" stroke="#101010" stroke-width="1.5" stroke-linecap="round" stroke-linejoin="round"/>
<path id="name_5" d="M12.375 18.0417V7.625C12.375 6.92559 12.375 6.57588 12.4993 6.30381C12.6366 6.00293 12.8779 5.76166 13.1788 5.62425C13.4509 5.5 13.8006 5.5 14.5 5.5C16.3651 5.5 17.2976 5.5 18.0232 5.83135C18.8255 6.19777 19.4689 6.84114 19.8353 7.64348C20.1667 8.36903 20.1667 9.3016 20.1667 11.1667V14.5C20.1667 16.3651 20.1667 17.2976 19.8353 18.0232C19.4689 18.8255 18.8255 19.4689 18.0232 19.8353C17.2976 20.1667 16.3651 20.1667 14.5 20.1667C13.8006 20.1667 13.4509 20.1667 13.1788 20.0424C12.8779 19.905 12.6366 19.6638 12.4993 19.3628C12.375 19.0908 12.375 18.7411 12.375 18.0417Z" stroke="#101010" stroke-width="1.5" stroke-linecap="round" stroke-linejoin="round"/>
<path id="name_6" d="M16.2708 16.9583V14.2083M17.6458 15.5833H14.8958" stroke="#101010" stroke-width="1.5" stroke-linecap="round" stroke-linejoin="round"/>
</g>
</svg>
