<svg width="20" height="21" viewBox="0 0 20 21" fill="none" xmlns="http://www.w3.org/2000/svg">
<g id="Frame">
<path id="name" d="M17.6405 2.85839C17.394 2.60899 17.0875 2.42736 16.7504 2.33105C16.4133 2.23473 16.057 2.22699 15.7161 2.30856L4.71953 4.62471C4.08625 4.71156 3.4898 4.97349 2.99734 5.381C2.50488 5.78852 2.13597 6.32543 1.93217 6.93128C1.72836 7.53712 1.69775 8.18784 1.84378 8.81014C1.98981 9.43244 2.30668 10.0016 2.75871 10.4536L3.93946 11.6336C4.00337 11.6975 4.05405 11.7734 4.0886 11.8569C4.12316 11.9404 4.14091 12.0299 4.14084 12.1202V14.2975C4.14235 14.6037 4.21283 14.9055 4.34702 15.1807L4.34152 15.1855L4.35939 15.2034C4.56078 15.6083 4.88969 15.9357 5.29547 16.1353L5.31334 16.1532L5.31815 16.1477C5.59331 16.2819 5.89517 16.3524 6.20131 16.3539H8.37862C8.56079 16.3537 8.73556 16.4259 8.86453 16.5546L10.0446 17.7346C10.3611 18.0547 10.7378 18.3089 11.153 18.4826C11.5682 18.6564 12.0137 18.7462 12.4638 18.747C12.8389 18.7465 13.2115 18.6853 13.5669 18.5656C14.1672 18.3684 14.7005 18.0075 15.1066 17.5234C15.5127 17.0394 15.7754 16.4515 15.8652 15.8261L18.1848 4.80546C18.2706 4.46158 18.2655 4.10129 18.1701 3.75994C18.0747 3.4186 17.8922 3.10792 17.6405 2.85839ZM4.91266 10.6632L3.73122 9.48312C3.45611 9.21463 3.26329 8.87325 3.1754 8.49903C3.08751 8.12481 3.10818 7.73329 3.235 7.37041C3.35795 6.99812 3.58524 6.66898 3.88984 6.42214C4.19444 6.17529 4.56352 6.02112 4.9532 5.97797L15.8405 3.68588L5.51403 14.0137V12.1202C5.51507 11.8497 5.46246 11.5816 5.35923 11.3315C5.25601 11.0814 5.10422 10.8542 4.91266 10.6632ZM14.5147 15.591C14.4619 15.9706 14.3044 16.328 14.0598 16.6231C13.8152 16.9181 13.4932 17.1391 13.1299 17.2613C12.7666 17.3835 12.3765 17.4021 12.0033 17.3149C11.6301 17.2277 11.2886 17.0382 11.0171 16.7676L9.83498 15.5855C9.64417 15.3936 9.41721 15.2415 9.16723 15.1379C8.91725 15.0344 8.64921 14.9814 8.37862 14.9821H6.48516L16.813 4.6577L14.5147 15.591Z" fill="#101010"/>
</g>
</svg>
