<svg width="22" height="22" viewBox="0 0 22 22" fill="none" xmlns="http://www.w3.org/2000/svg">
<g id="video-replay">
<path id="name" d="M16.2244 19.5568C15.15 19.7077 13.749 19.7077 11.8702 19.7077H10.1285C6.43388 19.7077 4.58657 19.7077 3.43879 18.5599C2.29102 17.4122 2.29102 15.5648 2.29102 11.8702V10.1285C2.29102 6.43388 2.29102 4.58657 3.43879 3.43879C4.58657 2.29102 6.43388 2.29102 10.1285 2.29102H11.8702C15.5648 2.29102 17.4122 2.29102 18.5599 3.43879C19.7077 4.58657 19.7077 6.43388 19.7077 10.1285V11.8702C19.7077 12.9777 19.7077 13.9192 19.6768 14.7257C19.6519 15.3719 19.6396 15.6952 19.3948 15.8159C19.1501 15.9366 18.8764 15.7429 18.3288 15.3555L17.0952 14.4827" stroke="#101010" stroke-width="1.5" stroke-linecap="round" stroke-linejoin="round"/>
<path id="name_2" d="M13.7005 11.3612C13.5385 11.9357 12.7728 12.3417 11.2416 13.1537C9.76132 13.9385 9.0212 14.3311 8.42474 14.1733C8.17814 14.108 7.95347 13.9842 7.77226 13.8135C7.33398 13.4008 7.33398 12.6003 7.33398 10.9993C7.33398 9.39839 7.33398 8.59785 7.77226 8.18513C7.95347 8.01451 8.17814 7.89064 8.42474 7.82542C9.0212 7.66767 9.76132 8.06012 11.2416 8.84502C12.7728 9.65698 13.5385 10.063 13.7005 10.6374C13.7673 10.8746 13.7673 11.1241 13.7005 11.3612Z" stroke="#101010" stroke-width="1.5" stroke-linejoin="round"/>
</g>
</svg>
